<svg width="309" height="394" viewBox="0 0 309 394" fill="none" xmlns="http://www.w3.org/2000/svg">
<circle cx="4" cy="122" r="4" fill="#043572"/>
<circle cx="24" cy="122" r="4" fill="#043572"/>
<circle cx="44" cy="122" r="4" fill="#043572"/>
<circle cx="64" cy="122" r="4" fill="#043572"/>
<circle cx="84" cy="122" r="4" fill="#043572"/>
<circle cx="104" cy="122" r="4" fill="#043572"/>
<circle cx="124" cy="122" r="4" fill="#043572"/>
<circle cx="144" cy="122" r="4" fill="#043572"/>
<circle cx="4" cy="142" r="4" fill="#043572"/>
<circle cx="24" cy="142" r="4" fill="#043572"/>
<circle cx="44" cy="142" r="4" fill="#043572"/>
<circle cx="64" cy="142" r="4" fill="#043572"/>
<circle cx="84" cy="142" r="4" fill="#043572"/>
<circle cx="104" cy="142" r="4" fill="#043572"/>
<circle cx="124" cy="142" r="4" fill="#043572"/>
<circle cx="144" cy="142" r="4" fill="#043572"/>
<circle cx="4" cy="162" r="4" fill="#043572"/>
<circle cx="24" cy="162" r="4" fill="#043572"/>
<circle cx="44" cy="162" r="4" fill="#043572"/>
<circle cx="64" cy="162" r="4" fill="#043572"/>
<circle cx="84" cy="162" r="4" fill="#043572"/>
<circle cx="104" cy="162" r="4" fill="#043572"/>
<circle cx="124" cy="162" r="4" fill="#043572"/>
<circle cx="144" cy="162" r="4" fill="#043572"/>
<circle cx="4" cy="182" r="4" fill="#043572"/>
<circle cx="24" cy="182" r="4" fill="#043572"/>
<circle cx="44" cy="182" r="4" fill="#043572"/>
<circle cx="64" cy="182" r="4" fill="#043572"/>
<circle cx="84" cy="182" r="4" fill="#043572"/>
<circle cx="104" cy="182" r="4" fill="#043572"/>
<circle cx="124" cy="182" r="4" fill="#043572"/>
<circle cx="144" cy="182" r="4" fill="#043572"/>
<circle cx="4" cy="202" r="4" fill="#043572"/>
<circle cx="24" cy="202" r="4" fill="#043572"/>
<circle cx="44" cy="202" r="4" fill="#043572"/>
<circle cx="64" cy="202" r="4" fill="#043572"/>
<circle cx="84" cy="202" r="4" fill="#043572"/>
<circle cx="104" cy="202" r="4" fill="#043572"/>
<circle cx="124" cy="202" r="4" fill="#043572"/>
<circle cx="144" cy="202" r="4" fill="#043572"/>
<circle cx="4" cy="222" r="4" fill="#043572"/>
<circle cx="24" cy="222" r="4" fill="#043572"/>
<circle cx="44" cy="222" r="4" fill="#043572"/>
<circle cx="64" cy="222" r="4" fill="#043572"/>
<circle cx="84" cy="222" r="4" fill="#043572"/>
<circle cx="104" cy="222" r="4" fill="#043572"/>
<circle cx="124" cy="222" r="4" fill="#043572"/>
<circle cx="144" cy="222" r="4" fill="#043572"/>
<circle cx="4" cy="239" r="4" fill="#043572"/>
<circle cx="24" cy="239" r="4" fill="#043572"/>
<circle cx="44" cy="239" r="4" fill="#043572"/>
<circle cx="64" cy="239" r="4" fill="#043572"/>
<circle cx="84" cy="239" r="4" fill="#043572"/>
<circle cx="104" cy="239" r="4" fill="#043572"/>
<circle cx="124" cy="239" r="4" fill="#043572"/>
<circle cx="144" cy="239" r="4" fill="#043572"/>
<circle cx="4" cy="259" r="4" fill="#043572"/>
<circle cx="24" cy="259" r="4" fill="#043572"/>
<circle cx="44" cy="259" r="4" fill="#043572"/>
<circle cx="64" cy="259" r="4" fill="#043572"/>
<circle cx="84" cy="259" r="4" fill="#043572"/>
<circle cx="104" cy="259" r="4" fill="#043572"/>
<circle cx="124" cy="259" r="4" fill="#043572"/>
<circle cx="144" cy="259" r="4" fill="#043572"/>
<circle cx="4" cy="279" r="4" fill="#043572"/>
<circle cx="24" cy="279" r="4" fill="#043572"/>
<circle cx="44" cy="279" r="4" fill="#043572"/>
<circle cx="64" cy="279" r="4" fill="#043572"/>
<circle cx="84" cy="279" r="4" fill="#043572"/>
<circle cx="104" cy="279" r="4" fill="#043572"/>
<circle cx="124" cy="279" r="4" fill="#043572"/>
<circle cx="144" cy="279" r="4" fill="#043572"/>
<circle cx="4" cy="299" r="4" fill="#043572"/>
<circle cx="24" cy="299" r="4" fill="#043572"/>
<circle cx="44" cy="299" r="4" fill="#043572"/>
<circle cx="64" cy="299" r="4" fill="#043572"/>
<circle cx="84" cy="299" r="4" fill="#043572"/>
<circle cx="104" cy="299" r="4" fill="#043572"/>
<circle cx="124" cy="299" r="4" fill="#043572"/>
<circle cx="144" cy="299" r="4" fill="#043572"/>
<circle cx="4" cy="319" r="4" fill="#043572"/>
<circle cx="24" cy="319" r="4" fill="#043572"/>
<circle cx="44" cy="319" r="4" fill="#043572"/>
<circle cx="64" cy="319" r="4" fill="#043572"/>
<circle cx="84" cy="319" r="4" fill="#043572"/>
<circle cx="104" cy="319" r="4" fill="#043572"/>
<circle cx="124" cy="319" r="4" fill="#043572"/>
<circle cx="144" cy="319" r="4" fill="#043572"/>
<circle cx="4" cy="339" r="4" fill="#043572"/>
<circle cx="24" cy="339" r="4" fill="#043572"/>
<circle cx="44" cy="339" r="4" fill="#043572"/>
<circle cx="64" cy="339" r="4" fill="#043572"/>
<circle cx="84" cy="339" r="4" fill="#043572"/>
<circle cx="104" cy="339" r="4" fill="#043572"/>
<circle cx="124" cy="339" r="4" fill="#043572"/>
<circle cx="144" cy="339" r="4" fill="#043572"/>
<circle cx="160" cy="122" r="4" fill="#043572"/>
<circle cx="180" cy="122" r="4" fill="#043572"/>
<circle cx="200" cy="122" r="4" fill="#043572"/>
<circle cx="220" cy="122" r="4" fill="#043572"/>
<circle cx="240" cy="122" r="4" fill="#043572"/>
<circle cx="260" cy="122" r="4" fill="#043572"/>
<circle cx="280" cy="122" r="4" fill="#043572"/>
<circle cx="300" cy="122" r="4" fill="#043572"/>
<circle cx="160" cy="142" r="4" fill="#043572"/>
<circle cx="180" cy="142" r="4" fill="#043572"/>
<circle cx="200" cy="142" r="4" fill="#043572"/>
<circle cx="220" cy="142" r="4" fill="#043572"/>
<circle cx="240" cy="142" r="4" fill="#043572"/>
<circle cx="260" cy="142" r="4" fill="#043572"/>
<circle cx="280" cy="142" r="4" fill="#043572"/>
<circle cx="300" cy="142" r="4" fill="#043572"/>
<circle cx="160" cy="162" r="4" fill="#043572"/>
<circle cx="180" cy="162" r="4" fill="#043572"/>
<circle cx="200" cy="162" r="4" fill="#043572"/>
<circle cx="220" cy="162" r="4" fill="#043572"/>
<circle cx="240" cy="162" r="4" fill="#043572"/>
<circle cx="260" cy="162" r="4" fill="#043572"/>
<circle cx="280" cy="162" r="4" fill="#043572"/>
<circle cx="300" cy="162" r="4" fill="#043572"/>
<circle cx="160" cy="182" r="4" fill="#043572"/>
<circle cx="180" cy="182" r="4" fill="#043572"/>
<circle cx="200" cy="182" r="4" fill="#043572"/>
<circle cx="220" cy="182" r="4" fill="#043572"/>
<circle cx="240" cy="182" r="4" fill="#043572"/>
<circle cx="260" cy="182" r="4" fill="#043572"/>
<circle cx="280" cy="182" r="4" fill="#043572"/>
<circle cx="300" cy="182" r="4" fill="#043572"/>
<circle cx="160" cy="202" r="4" fill="#043572"/>
<circle cx="180" cy="202" r="4" fill="#043572"/>
<circle cx="200" cy="202" r="4" fill="#043572"/>
<circle cx="220" cy="202" r="4" fill="#043572"/>
<circle cx="240" cy="202" r="4" fill="#043572"/>
<circle cx="260" cy="202" r="4" fill="#043572"/>
<circle cx="280" cy="202" r="4" fill="#043572"/>
<circle cx="300" cy="202" r="4" fill="#043572"/>
<circle cx="160" cy="222" r="4" fill="#043572"/>
<circle cx="180" cy="222" r="4" fill="#043572"/>
<circle cx="200" cy="222" r="4" fill="#043572"/>
<circle cx="220" cy="222" r="4" fill="#043572"/>
<circle cx="240" cy="222" r="4" fill="#043572"/>
<circle cx="260" cy="222" r="4" fill="#043572"/>
<circle cx="280" cy="222" r="4" fill="#043572"/>
<circle cx="300" cy="222" r="4" fill="#043572"/>
<circle cx="160" cy="239" r="4" fill="#043572"/>
<circle cx="180" cy="239" r="4" fill="#043572"/>
<circle cx="200" cy="239" r="4" fill="#043572"/>
<circle cx="220" cy="239" r="4" fill="#043572"/>
<circle cx="240" cy="239" r="4" fill="#043572"/>
<circle cx="260" cy="239" r="4" fill="#043572"/>
<circle cx="280" cy="239" r="4" fill="#043572"/>
<circle cx="300" cy="239" r="4" fill="#043572"/>
<circle cx="160" cy="259" r="4" fill="#043572"/>
<circle cx="180" cy="259" r="4" fill="#043572"/>
<circle cx="200" cy="259" r="4" fill="#043572"/>
<circle cx="220" cy="259" r="4" fill="#043572"/>
<circle cx="240" cy="259" r="4" fill="#043572"/>
<circle cx="260" cy="259" r="4" fill="#043572"/>
<circle cx="280" cy="259" r="4" fill="#043572"/>
<circle cx="300" cy="259" r="4" fill="#043572"/>
<circle cx="160" cy="279" r="4" fill="#043572"/>
<circle cx="180" cy="279" r="4" fill="#043572"/>
<circle cx="200" cy="279" r="4" fill="#043572"/>
<circle cx="220" cy="279" r="4" fill="#043572"/>
<circle cx="240" cy="279" r="4" fill="#043572"/>
<circle cx="260" cy="279" r="4" fill="#043572"/>
<circle cx="280" cy="279" r="4" fill="#043572"/>
<circle cx="300" cy="279" r="4" fill="#043572"/>
<circle cx="160" cy="299" r="4" fill="#043572"/>
<circle cx="180" cy="299" r="4" fill="#043572"/>
<circle cx="200" cy="299" r="4" fill="#043572"/>
<circle cx="220" cy="299" r="4" fill="#043572"/>
<circle cx="240" cy="299" r="4" fill="#043572"/>
<circle cx="260" cy="299" r="4" fill="#043572"/>
<circle cx="280" cy="299" r="4" fill="#043572"/>
<circle cx="300" cy="299" r="4" fill="#043572"/>
<circle cx="160" cy="319" r="4" fill="#043572"/>
<circle cx="180" cy="319" r="4" fill="#043572"/>
<circle cx="200" cy="319" r="4" fill="#043572"/>
<circle cx="220" cy="319" r="4" fill="#043572"/>
<circle cx="240" cy="319" r="4" fill="#043572"/>
<circle cx="260" cy="319" r="4" fill="#043572"/>
<circle cx="280" cy="319" r="4" fill="#043572"/>
<circle cx="300" cy="319" r="4" fill="#043572"/>
<circle cx="160" cy="339" r="4" fill="#043572"/>
<circle cx="180" cy="339" r="4" fill="#043572"/>
<circle cx="200" cy="339" r="4" fill="#043572"/>
<circle cx="220" cy="339" r="4" fill="#043572"/>
<circle cx="240" cy="339" r="4" fill="#043572"/>
<circle cx="260" cy="339" r="4" fill="#043572"/>
<circle cx="280" cy="339" r="4" fill="#043572"/>
<circle cx="300" cy="339" r="4" fill="#043572"/>
<circle cx="133" cy="124" r="95" stroke="#81CB99" stroke-width="6"/>
<rect x="48" width="20" height="394" fill="#F9942F"/>
<rect x="80" width="20" height="394" fill="#F9942F"/>
<circle cx="240.5" cy="314.5" r="68.5" fill="#9DD1D4"/>
<rect x="208" y="341" width="101" height="7" fill="#021E40"/>
<rect x="208" y="326" width="101" height="7" fill="#021E40"/>
<rect x="208" y="311" width="101" height="7" fill="#021E40"/>
<rect x="208" y="296" width="101" height="7" fill="#021E40"/>
<rect x="208" y="281" width="101" height="7" fill="#021E40"/>
<path d="M58 315L170.5 250.048V379.952L58 315Z" fill="#F6625A"/>
</svg>
